WIPSHDC-V1-Revival-Sans-Heavy.ufo
<glyph name="uni4E52" format="2">
  <advance width="1000"/>
  <unicode hex="4E52"/>
  <note>
cid09591
</note>
  <outline>
    <contour>
      <point x="754" y="552" type="line"/>
      <point x="607" y="552" type="line"/>
      <point x="607" y="246" type="line"/>
      <point x="754" y="246" type="line"/>
    </contour>
    <contour>
      <point x="955" y="307" type="line"/>
      <point x="45" y="307" type="line"/>
      <point x="45" y="172" type="line"/>
      <point x="955" y="172" type="line"/>
    </contour>
    <contour>
      <point x="911" y="589" type="line"/>
      <point x="289" y="589" type="line"/>
      <point x="289" y="461" type="line"/>
      <point x="911" y="461" type="line"/>
    </contour>
    <contour>
      <point x="369" y="739" type="line"/>
      <point x="214" y="798" type="line"/>
      <point x="214" y="241" type="line"/>
      <point x="369" y="241" type="line"/>
    </contour>
    <contour>
      <point x="843" y="751" type="curve"/>
      <point x="724" y="855" type="line"/>
      <point x="608" y="808"/>
      <point x="421" y="772"/>
      <point x="251" y="758" type="curve"/>
      <point x="267" y="728"/>
      <point x="286" y="675"/>
      <point x="292" y="642" type="curve"/>
      <point x="471" y="659"/>
      <point x="679" y="692"/>
    </contour>
    <contour>
      <point x="438" y="105" type="curve"/>
      <point x="321" y="180" type="line"/>
      <point x="273" y="124"/>
      <point x="193" y="61"/>
      <point x="79" y="18" type="curve"/>
      <point x="123" y="-11"/>
      <point x="167" y="-63"/>
      <point x="192" y="-97" type="curve"/>
      <point x="277" y="-51"/>
      <point x="378" y="28"/>
    </contour>
  </outline>
</glyph>
<glyph name="uni4E53" format="2">
  <advance width="1000"/>
  <unicode hex="4E53"/>
  <note>
cid09592
</note>
  <outline>
    <contour>
      <point x="754" y="552" type="line"/>
      <point x="607" y="552" type="line"/>
      <point x="607" y="246" type="line"/>
      <point x="754" y="246" type="line"/>
    </contour>
    <contour>
      <point x="955" y="307" type="line"/>
      <point x="45" y="307" type="line"/>
      <point x="45" y="172" type="line"/>
      <point x="955" y="172" type="line"/>
    </contour>
    <contour>
      <point x="911" y="589" type="line"/>
      <point x="289" y="589" type="line"/>
      <point x="289" y="461" type="line"/>
      <point x="911" y="461" type="line"/>
    </contour>
    <contour>
      <point x="722" y="169" type="curve"/>
      <point x="594" y="95" type="line"/>
      <point x="662" y="40"/>
      <point x="761" y="-44"/>
      <point x="806" y="-97" type="curve"/>
      <point x="944" y="-12" type="line"/>
      <point x="891" y="42"/>
      <point x="787" y="122"/>
    </contour>
    <contour>
      <point x="369" y="739" type="line"/>
      <point x="214" y="798" type="line"/>
      <point x="214" y="246" type="line"/>
      <point x="369" y="246" type="line"/>
    </contour>
    <contour>
      <point x="843" y="751" type="curve"/>
      <point x="724" y="855" type="line"/>
      <point x="609" y="808"/>
      <point x="423" y="774"/>
      <point x="254" y="758" type="curve"/>
      <point x="269" y="729"/>
      <point x="286" y="676"/>
      <point x="292" y="644" type="curve"/>
      <point x="472" y="657"/>
      <point x="682" y="691"/>
    </contour>
  </outline>
</glyph>
<glyph name="uni506F" format="2">
  <advance width="1000"/>
  <unicode hex="506F"/>
  <note>
cid10439
</note>
  <outline>
    <contour>
      <point x="559" y="243" type="line"/>
      <point x="421" y="243" type="line"/>
      <point x="421" y="-16" type="line"/>
      <point x="559" y="6" type="line"/>
    </contour>
    <contour>
      <point x="332" y="41" type="curve"/>
      <point x="364" y="-89" type="line"/>
      <point x="461" y="-72"/>
      <point x="588" y="-50"/>
      <point x="705" y="-28" type="curve"/>
      <point x="694" y="98" type="line"/>
      <point x="563" y="76"/>
      <point x="426" y="53"/>
    </contour>
    <contour>
      <point x="707" y="856" type="line"/>
      <point x="563" y="856" type="line"/>
      <point x="563" y="703" type="line"/>
      <point x="707" y="703" type="line"/>
    </contour>
    <contour>
      <point x="956" y="769" type="line"/>
      <point x="330" y="769" type="line"/>
      <point x="330" y="640" type="line"/>
      <point x="956" y="640" type="line"/>
    </contour>
    <contour>
      <point x="511" y="439" type="line"/>
      <point x="511" y="488" type="line"/>
      <point x="767" y="488" type="line"/>
      <point x="767" y="439" type="line"/>
    </contour>
    <contour>
      <point x="911" y="602" type="line"/>
      <point x="375" y="602" type="line"/>
      <point x="375" y="324" type="line"/>
      <point x="911" y="324" type="line"/>
    </contour>
    <contour>
      <point x="705" y="340" type="curve"/>
      <point x="579" y="388" type="line"/>
      <point x="501" y="311"/>
      <point x="382" y="244"/>
      <point x="269" y="214" type="curve"/>
      <point x="300" y="186"/>
      <point x="340" y="137"/>
      <point x="360" y="103" type="curve"/>
      <point x="477" y="143"/>
      <point x="610" y="234"/>
    </contour>
    <contour>
      <point x="705" y="361" type="curve"/>
      <point x="580" y="338" type="line"/>
      <point x="633" y="125"/>
      <point x="719" y="-21"/>
      <point x="903" y="-93" type="curve"/>
      <point x="921" y="-56"/>
      <point x="961" y="-1"/>
      <point x="991" y="26" type="curve"/>
      <point x="830" y="77"/>
      <point x="745" y="199"/>
    </contour>
    <contour>
      <point x="980" y="225" type="curve"/>
      <point x="870" y="315" type="line"/>
      <point x="827" y="273"/>
      <point x="754" y="218"/>
      <point x="702" y="187" type="curve"/>
      <point x="792" y="107" type="line"/>
      <point x="846" y="135"/>
      <point x="918" y="180"/>
    </contour>
    <contour>
      <point x="347" y="811" type="curve"/>
      <point x="212" y="853" type="line"/>
      <point x="166" y="714"/>
      <point x="86" y="575"/>
      <point x="3" y="486" type="curve"/>
      <point x="26" y="449"/>
      <point x="64" y="367"/>
      <point x="76" y="332" type="curve"/>
      <point x="178" y="444"/>
      <point x="282" y="628"/>
    </contour>
    <contour>
      <point x="272" y="726" type="line"/>
      <point x="132" y="509" type="line"/>
      <point x="132" y="-98" type="line"/>
      <point x="273" y="-98" type="line"/>
      <point x="273" y="725" type="line"/>
    </contour>
  </outline>
</glyph>
<glyph name="uni523D" format="2">
  <advance width="1000"/>
  <unicode hex="523D"/>
  <note>
cid11218
</note>
  <outline>
    <contour>
      <point x="351" y="839" type="line"/>
      <point x="256" y="839" type="line"/>
      <point x="214" y="736"/>
      <point x="136" y="622"/>
      <point x="16" y="535" type="curve"/>
      <point x="47" y="512"/>
      <point x="92" y="459"/>
      <point x="111" y="425" type="curve"/>
      <point x="232" y="521"/>
      <point x="338" y="655"/>
      <point x="385" y="772" type="curve"/>
      <point x="385" y="812" type="line"/>
      <point x="351" y="812" type="line"/>
    </contour>
    <contour>
      <point x="395" y="839" type="curve"/>
      <point x="289" y="839" type="line"/>
      <point x="289" y="739" type="line"/>
      <point x="308" y="739" type="line"/>
      <point x="389" y="658"/>
      <point x="467" y="554"/>
      <point x="510" y="469" type="curve"/>
      <point x="612" y="581" type="line"/>
      <point x="566" y="661"/>
      <point x="471" y="765"/>
    </contour>
    <contour>
      <point x="375" y="255" type="curve"/>
      <point x="222" y="288" type="line"/>
      <point x="204" y="201"/>
      <point x="177" y="104"/>
      <point x="151" y="38" type="curve"/>
      <point x="277" y="6" type="line"/>
      <point x="307" y="69"/>
      <point x="345" y="165"/>
    </contour>
    <contour>
      <point x="504" y="211" type="curve"/>
      <point x="378" y="170" type="line"/>
      <point x="420" y="89"/>
      <point x="456" y="-16"/>
      <point x="466" y="-83" type="curve"/>
      <point x="601" y="-35" type="line"/>
      <point x="585" y="34"/>
      <point x="546" y="134"/>
    </contour>
    <contour>
      <point x="497" y="544" type="line"/>
      <point x="168" y="544" type="line"/>
      <point x="168" y="419" type="line"/>
      <point x="497" y="419" type="line"/>
    </contour>
    <contour>
      <point x="576" y="351" type="line"/>
      <point x="80" y="351" type="line"/>
      <point x="80" y="225" type="line"/>
      <point x="576" y="225" type="line"/>
    </contour>
    <contour>
      <point x="70" y="55" type="curve"/>
      <point x="103" y="-81" type="line"/>
      <point x="209" y="-64"/>
      <point x="352" y="-41"/>
      <point x="486" y="-18" type="curve"/>
      <point x="484" y="104" type="line"/>
      <point x="336" y="85"/>
      <point x="177" y="66"/>
    </contour>
    <contour>
      <point x="745" y="746" type="line"/>
      <point x="611" y="746" type="line"/>
      <point x="611" y="179" type="line"/>
      <point x="745" y="179" type="line"/>
    </contour>
    <contour>
      <point x="945" y="836" type="line"/>
      <point x="808" y="836" type="line"/>
      <point x="808" y="71" type="line" smooth="yes"/>
      <point x="808" y="55"/>
      <point x="802" y="50"/>
      <point x="786" y="50" type="curve" smooth="yes"/>
      <point x="769" y="50"/>
      <point x="718" y="50"/>
      <point x="671" y="52" type="curve"/>
      <point x="689" y="12"/>
      <point x="708" y="-51"/>
      <point x="713" y="-90" type="curve"/>
      <point x="793" y="-90"/>
      <point x="852" y="-85"/>
      <point x="893" y="-62" type="curve" smooth="yes"/>
      <point x="933" y="-40"/>
      <point x="945" y="-2"/>
      <point x="945" y="70" type="curve" smooth="yes"/>
    </contour>
  </outline>
</glyph>
<glyph name="uni524E" format="2">
  <advance width="1000"/>
  <unicode hex="524E"/>
  <outline>
    <contour>
      <point x="452" y="511" type="curve"/>
      <point x="362" y="447" type="line"/>
      <point x="401" y="413"/>
      <point x="437" y="374"/>
      <point x="455" y="346" type="curve"/>
      <point x="549" y="417" type="line"/>
      <point x="529" y="445"/>
      <point x="492" y="481"/>
    </contour>
    <contour>
      <point x="539" y="244" type="line"/>
      <point x="539" y="368" type="line"/>
      <point x="43" y="368" type="line"/>
      <point x="43" y="244" type="line"/>
    </contour>
    <contour>
      <point x="369" y="-89" type="line"/>
      <point x="369" y="490" type="line"/>
      <point x="230" y="490" type="line"/>
      <point x="230" y="-89" type="line"/>
    </contour>
    <contour>
      <point x="511" y="803" type="curve"/>
      <point x="372" y="857" type="line"/>
      <point x="298" y="728"/>
      <point x="167" y="601"/>
      <point x="18" y="533" type="curve"/>
      <point x="47" y="509"/>
      <point x="91" y="461"/>
      <point x="111" y="433" type="curve"/>
      <point x="265" y="514"/>
      <point x="411" y="648"/>
    </contour>
    <contour>
      <point x="323" y="251" type="curve"/>
      <point x="227" y="302" type="line"/>
      <point x="185" y="229"/>
      <point x="99" y="141"/>
      <point x="14" y="90" type="curve"/>
      <point x="36" y="52"/>
      <point x="67" y="-11"/>
      <point x="79" y="-53" type="curve"/>
      <point x="178" y="15"/>
      <point x="266" y="142"/>
    </contour>
    <contour>
      <point x="344" y="246" type="curve"/>
      <point x="263" y="175" type="line"/>
      <point x="319" y="132"/>
      <point x="412" y="48"/>
      <point x="461" y="-4" type="curve"/>
      <point x="547" y="111" type="line"/>
      <point x="515" y="136"/>
      <point x="388" y="223"/>
    </contour>
    <contour>
      <point x="707" y="191" type="line"/>
      <point x="707" y="763" type="line"/>
      <point x="566" y="763" type="line"/>
      <point x="566" y="191" type="line"/>
    </contour>
    <contour>
      <point x="936" y="76" type="curve" smooth="yes"/>
      <point x="936" y="834" type="line"/>
      <point x="792" y="834" type="line"/>
      <point x="792" y="77" type="line" smooth="yes"/>
      <point x="792" y="58"/>
      <point x="784" y="52"/>
      <point x="765" y="52" type="curve" smooth="yes"/>
      <point x="743" y="52"/>
      <point x="677" y="52"/>
      <point x="614" y="55" type="curve"/>
      <point x="635" y="14"/>
      <point x="658" y="-54"/>
      <point x="664" y="-96" type="curve"/>
      <point x="756" y="-96"/>
      <point x="828" y="-91"/>
      <point x="875" y="-68" type="curve" smooth="yes"/>
      <point x="921" y="-44"/>
      <point x="936" y="-5"/>
    </contour>
    <contour>
      <point x="148" y="813" type="curve"/>
      <point x="50" y="719" type="line"/>
      <point x="190" y="654"/>
      <point x="356" y="551"/>
      <point x="447" y="472" type="curve"/>
      <point x="546" y="580" type="line"/>
      <point x="451" y="653"/>
      <point x="288" y="753"/>
    </contour>
  </outline>
</glyph>
<glyph name="uni5406" format="2">
  <advance width="1000"/>
  <unicode hex="5406"/>
  <note>
cid11946
</note>
  <outline>
    <contour>
      <point x="381" y="750" type="line"/>
      <point x="145" y="750" type="line"/>
      <point x="145" y="617" type="line"/>
      <point x="245" y="617" type="line"/>
      <point x="244" y="308" type="line"/>
      <point x="144" y="308" type="line"/>
      <point x="144" y="174" type="line"/>
      <point x="380" y="174" type="line"/>
    </contour>
    <contour>
      <point x="193" y="750" type="line"/>
      <point x="60" y="750" type="line"/>
      <point x="60" y="88" type="line"/>
      <point x="193" y="88" type="line"/>
    </contour>
    <contour>
      <point x="728" y="803" type="curve"/>
      <point x="577" y="857" type="line"/>
      <point x="545" y="742"/>
      <point x="476" y="602"/>
      <point x="419" y="508" type="curve"/>
      <point x="532" y="445" type="line"/>
      <point x="590" y="534"/>
      <point x="667" y="668"/>
    </contour>
    <contour>
      <point x="417" y="637" type="curve"/>
      <point x="337" y="509" type="line"/>
      <point x="431" y="422"/>
      <point x="556" y="291"/>
      <point x="604" y="199" type="curve"/>
      <point x="700" y="346" type="line"/>
      <point x="642" y="433"/>
      <point x="510" y="556"/>
    </contour>
    <contour>
      <point x="850" y="324" type="curve"/>
      <point x="715" y="283" type="line"/>
      <point x="768" y="164"/>
      <point x="822" y="9"/>
      <point x="837" y="-94" type="curve"/>
      <point x="985" y="-44" type="line"/>
      <point x="966" y="62"/>
      <point x="906" y="210"/>
    </contour>
    <contour>
      <point x="332" y="87" type="curve"/>
      <point x="357" y="-60" type="line"/>
      <point x="502" y="-43"/>
      <point x="703" y="-21"/>
      <point x="891" y="4" type="curve"/>
      <point x="892" y="146" type="line"/>
      <point x="695" y="121"/>
      <point x="477" y="97"/>
    </contour>
    <contour>
      <point x="915" y="634" type="curve"/>
      <point x="765" y="679" type="line"/>
      <point x="672" y="467"/>
      <point x="524" y="210"/>
      <point x="391" y="47" type="curve"/>
      <point x="508" y="-18" type="line"/>
      <point x="636" y="146"/>
      <point x="799" y="398"/>
    </contour>
  </outline>
</glyph>
<glyph name="uni5493" format="2">
  <advance width="1000"/>
  <unicode hex="5493"/>
  <note>
cid12154
</note>
  <outline>
    <contour>
      <point x="337" y="143" type="line"/>
      <point x="337" y="762" type="line"/>
      <point x="140" y="762" type="line"/>
      <point x="140" y="633" type="line"/>
      <point x="215" y="633" type="line"/>
      <point x="215" y="272" type="line"/>
      <point x="140" y="272" type="line"/>
      <point x="140" y="143" type="line"/>
    </contour>
    <contour>
      <point x="176" y="73" type="line"/>
      <point x="176" y="762" type="line"/>
      <point x="58" y="762" type="line"/>
      <point x="58" y="73" type="line"/>
    </contour>
    <contour>
      <point x="949" y="679" type="line"/>
      <point x="949" y="808" type="line"/>
      <point x="359" y="808" type="line"/>
      <point x="359" y="679" type="line"/>
    </contour>
    <contour>
      <point x="585" y="734" type="curve"/>
      <point x="446" y="734" type="line"/>
      <point x="439" y="493"/>
      <point x="415" y="192"/>
      <point x="388" y="1" type="curve"/>
      <point x="532" y="0" type="line"/>
      <point x="553" y="186"/>
      <point x="574" y="488"/>
    </contour>
    <contour>
      <point x="310" y="48" type="curve"/>
      <point x="342" y="-83" type="line"/>
      <point x="456" y="-68"/>
      <point x="607" y="-49"/>
      <point x="748" y="-28" type="curve"/>
      <point x="743" y="94" type="line"/>
      <point x="587" y="76"/>
      <point x="420" y="58"/>
    </contour>
    <contour>
      <point x="661" y="406" type="curve"/>
      <point x="548" y="373" type="line"/>
      <point x="576" y="299"/>
      <point x="601" y="201"/>
      <point x="605" y="137" type="curve"/>
      <point x="726" y="173" type="line"/>
      <point x="718" y="237"/>
      <point x="693" y="333"/>
    </contour>
    <contour>
      <point x="857" y="588" type="curve"/>
      <point x="721" y="588" type="line"/>
      <point x="722" y="273"/>
      <point x="729" y="-94"/>
      <point x="881" y="-94" type="curve" smooth="yes"/>
      <point x="958" y="-94"/>
      <point x="982" y="-31"/>
      <point x="991" y="105" type="curve"/>
      <point x="965" y="125"/>
      <point x="934" y="160"/>
      <point x="909" y="194" type="curve"/>
      <point x="908" y="101"/>
      <point x="903" y="47"/>
      <point x="894" y="47" type="curve" smooth="yes"/>
      <point x="859" y="47"/>
      <point x="853" y="350"/>
    </contour>
    <contour>
      <point x="793" y="465" type="line"/>
      <point x="793" y="588" type="line"/>
      <point x="513" y="588" type="line"/>
      <point x="502" y="465" type="line"/>
    </contour>
  </outline>
</glyph>
<glyph name="uni5494" format="2">
  <advance width="1000" height="1000"/>
  <unicode hex="5494"/>
  <note>
cid12156
</note>
  <outline>
    <contour>
      <point x="974" y="471" type="line"/>
      <point x="388" y="471" type="line"/>
      <point x="388" y="336" type="line"/>
      <point x="974" y="336" type="line"/>
    </contour>
    <contour>
      <point x="711" y="852" type="line"/>
      <point x="570" y="852" type="line"/>
      <point x="570" y="-93" type="line"/>
      <point x="711" y="-93" type="line"/>
    </contour>
    <contour>
      <point x="929" y="722" type="line"/>
      <point x="641" y="722" type="line"/>
      <point x="641" y="592" type="line"/>
      <point x="929" y="592" type="line"/>
    </contour>
    <contour>
      <point x="786" y="300" type="curve"/>
      <point x="686" y="218" type="line"/>
      <point x="750" y="171"/>
      <point x="823" y="103"/>
      <point x="855" y="55" type="curve"/>
      <point x="963" y="145" type="line"/>
      <point x="927" y="194"/>
      <point x="848" y="258"/>
    </contour>
    <contour>
      <point x="378" y="766" type="line"/>
      <point x="151" y="766" type="line"/>
      <point x="151" y="632" type="line"/>
      <point x="246" y="632" type="line"/>
      <point x="246" y="314" type="line"/>
      <point x="151" y="314" type="line"/>
      <point x="151" y="180" type="line"/>
      <point x="378" y="180" type="line"/>
    </contour>
    <contour>
      <point x="185" y="766" type="line"/>
      <point x="56" y="766" type="line"/>
      <point x="56" y="95" type="line"/>
      <point x="185" y="95" type="line"/>
    </contour>
  </outline>
</glyph>
<glyph name="uni54A3" format="2">
  <advance width="1000" height="1000"/>
  <unicode hex="54A3"/>
  <note>
cid12175
</note>
  <outline>
    <contour>
      <point x="366" y="163" type="line"/>
      <point x="366" y="753" type="line"/>
      <point x="144" y="753" type="line"/>
      <point x="144" y="622" type="line"/>
      <point x="241" y="622" type="line"/>
      <point x="241" y="295" type="line"/>
      <point x="144" y="295" type="line"/>
      <point x="144" y="163" type="line"/>
    </contour>
    <contour>
      <point x="187" y="82" type="line"/>
      <point x="187" y="753" type="line"/>
      <point x="62" y="753" type="line"/>
      <point x="62" y="82" type="line"/>
    </contour>
    <contour>
      <point x="966" y="344" type="line"/>
      <point x="966" y="475" type="line"/>
      <point x="385" y="475" type="line"/>
      <point x="385" y="344" type="line"/>
    </contour>
    <contour>
      <point x="736" y="414" type="line"/>
      <point x="736" y="837" type="line"/>
      <point x="598" y="837" type="line"/>
      <point x="598" y="414" type="line"/>
    </contour>
    <contour>
      <point x="623" y="360" type="curve"/>
      <point x="486" y="360" type="line"/>
      <point x="477" y="206"/>
      <point x="463" y="91"/>
      <point x="287" y="23" type="curve"/>
      <point x="318" y="-5"/>
      <point x="356" y="-60"/>
      <point x="372" y="-97" type="curve"/>
      <point x="581" y="-3"/>
      <point x="612" y="157"/>
    </contour>
    <contour>
      <point x="807" y="80" type="curve" smooth="yes"/>
      <point x="807" y="354" type="line"/>
      <point x="669" y="354" type="line"/>
      <point x="669" y="79" type="line" smooth="yes"/>
      <point x="669" y="-43"/>
      <point x="692" y="-86"/>
      <point x="795" y="-86" type="curve" smooth="yes"/>
      <point x="814" y="-86"/>
      <point x="840" y="-86"/>
      <point x="859" y="-86" type="curve" smooth="yes"/>
      <point x="944" y="-86"/>
      <point x="977" y="-39"/>
      <point x="988" y="131" type="curve"/>
      <point x="952" y="141"/>
      <point x="892" y="164"/>
      <point x="866" y="187" type="curve"/>
      <point x="863" y="61"/>
      <point x="859" y="42"/>
      <point x="844" y="42" type="curve" smooth="yes"/>
      <point x="839" y="42"/>
      <point x="826" y="42"/>
      <point x="821" y="42" type="curve" smooth="yes"/>
      <point x="808" y="42"/>
      <point x="807" y="46"/>
    </contour>
    <contour>
      <point x="511" y="793" type="curve"/>
      <point x="390" y="758" type="line"/>
      <point x="419" y="681"/>
      <point x="443" y="578"/>
      <point x="447" y="512" type="curve"/>
      <point x="576" y="550" type="line"/>
      <point x="569" y="617"/>
      <point x="543" y="716"/>
    </contour>
    <contour>
      <point x="964" y="766" type="curve"/>
      <point x="818" y="804" type="line"/>
      <point x="807" y="725"/>
      <point x="781" y="621"/>
      <point x="758" y="553" type="curve"/>
      <point x="878" y="517" type="line"/>
      <point x="904" y="579"/>
      <point x="935" y="675"/>
    </contour>
  </outline>
</glyph>
<glyph name="uni54CB" format="2">
  <advance width="1000"/>
  <unicode hex="54CB"/>
  <note>
cid12237
</note>
  <outline>
    <contour>
      <point x="878" y="672" type="line"/>
      <point x="478" y="498" type="line"/>
      <point x="531" y="374" type="line"/>
      <point x="930" y="551" type="line"/>
    </contour>
    <contour>
      <point x="848" y="660" type="line"/>
      <point x="856" y="660" type="line"/>
      <point x="856" y="428"/>
      <point x="856" y="332"/>
      <point x="853" y="319" type="curve" smooth="yes"/>
      <point x="850" y="304"/>
      <point x="847" y="302"/>
      <point x="836" y="302" type="curve" smooth="yes"/>
      <point x="827" y="302"/>
      <point x="817" y="302"/>
      <point x="807" y="303" type="curve"/>
      <point x="822" y="280"/>
      <point x="831" y="235"/>
      <point x="833" y="203" type="curve"/>
      <point x="861" y="203"/>
      <point x="891" y="204"/>
      <point x="916" y="215" type="curve" smooth="yes"/>
      <point x="950" y="230"/>
      <point x="966" y="259"/>
      <point x="967" y="311" type="curve" smooth="yes"/>
      <point x="968" y="347"/>
      <point x="970" y="473"/>
      <point x="970" y="640" type="curve"/>
      <point x="974" y="659" type="line"/>
      <point x="891" y="690" type="line"/>
      <point x="870" y="675" type="line"/>
    </contour>
    <contour>
      <point x="522" y="586" type="line"/>
      <point x="301" y="586" type="line"/>
      <point x="301" y="453" type="line"/>
      <point x="522" y="453" type="line"/>
    </contour>
    <contour>
      <point x="467" y="810" type="line"/>
      <point x="355" y="810" type="line"/>
      <point x="355" y="139" type="line"/>
      <point x="467" y="139" type="line"/>
    </contour>
    <contour>
      <point x="281" y="166" type="curve"/>
      <point x="334" y="24" type="line"/>
      <point x="402" y="54"/>
      <point x="481" y="89"/>
      <point x="555" y="125" type="curve"/>
      <point x="530" y="246" type="line"/>
      <point x="438" y="215"/>
      <point x="344" y="183"/>
    </contour>
    <contour>
      <point x="816" y="854" type="line"/>
      <point x="709" y="854" type="line"/>
      <point x="709" y="143" type="line"/>
      <point x="816" y="143" type="line"/>
    </contour>
    <contour>
      <point x="671" y="755" type="line"/>
      <point x="556" y="755" type="line"/>
      <point x="556" y="95" type="line" smooth="yes"/>
      <point x="556" y="-35"/>
      <point x="587" y="-70"/>
      <point x="701" y="-70" type="curve" smooth="yes"/>
      <point x="848" y="-70" type="line" smooth="yes"/>
      <point x="942" y="-70"/>
      <point x="975" y="-26"/>
      <point x="988" y="98" type="curve"/>
      <point x="956" y="105"/>
      <point x="910" y="125"/>
      <point x="884" y="143" type="curve"/>
      <point x="879" y="58"/>
      <point x="872" y="38"/>
      <point x="837" y="38" type="curve" smooth="yes"/>
      <point x="716" y="38" type="line" smooth="yes"/>
      <point x="676" y="38"/>
      <point x="671" y="45"/>
      <point x="671" y="95" type="curve" smooth="yes"/>
    </contour>
    <contour>
      <point x="280" y="757" type="line"/>
      <point x="122" y="757" type="line"/>
      <point x="122" y="628" type="line"/>
      <point x="182" y="628" type="line"/>
      <point x="182" y="267" type="line"/>
      <point x="122" y="267" type="line"/>
      <point x="122" y="138" type="line"/>
      <point x="280" y="138" type="line"/>
    </contour>
    <contour>
      <point x="151" y="757" type="line"/>
      <point x="55" y="757" type="line"/>
      <point x="55" y="68" type="line"/>
      <point x="151" y="68" type="line"/>
    </contour>
  </outline>
</glyph>
<glyph name="uni553F" format="2">
  <advance width="1000" height="1000"/>
  <unicode hex="553F"/>
  <note>
cid12410
</note>
  <outline>
    <contour>
      <point x="339" y="172" type="line"/>
      <point x="339" y="757" type="line"/>
      <point x="142" y="757" type="line"/>
      <point x="142" y="628" type="line"/>
      <point x="217" y="628" type="line"/>
      <point x="217" y="301" type="line"/>
      <point x="142" y="301" type="line"/>
      <point x="142" y="172" type="line"/>
    </contour>
    <contour>
      <point x="178" y="95" type="line"/>
      <point x="178" y="757" type="line"/>
      <point x="60" y="757" type="line"/>
      <point x="60" y="95" type="line"/>
    </contour>
    <contour>
      <point x="588" y="827" type="curve"/>
      <point x="462" y="855" type="line"/>
      <point x="435" y="761"/>
      <point x="381" y="672"/>
      <point x="312" y="617" type="curve"/>
      <point x="342" y="600"/>
      <point x="396" y="564"/>
      <point x="420" y="543" type="curve"/>
      <point x="489" y="609"/>
      <point x="552" y="714"/>
    </contour>
    <contour>
      <point x="665" y="662" type="curve"/>
      <point x="541" y="690" type="line"/>
      <point x="505" y="579"/>
      <point x="431" y="481"/>
      <point x="337" y="423" type="curve"/>
      <point x="366" y="404"/>
      <point x="416" y="363"/>
      <point x="438" y="341" type="curve"/>
      <point x="533" y="412"/>
      <point x="619" y="528"/>
    </contour>
    <contour>
      <point x="822" y="663" type="curve"/>
      <point x="697" y="688" type="line"/>
      <point x="664" y="550"/>
      <point x="594" y="427"/>
      <point x="495" y="354" type="curve"/>
      <point x="525" y="338"/>
      <point x="580" y="301"/>
      <point x="603" y="280" type="curve"/>
      <point x="700" y="366"/>
      <point x="779" y="504"/>
    </contour>
    <contour>
      <point x="884" y="631" type="line"/>
      <point x="884" y="752" type="line"/>
      <point x="505" y="752" type="line"/>
      <point x="436" y="631" type="line"/>
    </contour>
    <contour>
      <point x="971" y="752" type="curve"/>
      <point x="834" y="752" type="line"/>
      <point x="834" y="732" type="line"/>
      <point x="821" y="533"/>
      <point x="803" y="458"/>
      <point x="787" y="438" type="curve" smooth="yes"/>
      <point x="777" y="427"/>
      <point x="770" y="425"/>
      <point x="758" y="425" type="curve" smooth="yes"/>
      <point x="746" y="425"/>
      <point x="729" y="425"/>
      <point x="707" y="428" type="curve"/>
      <point x="727" y="392"/>
      <point x="739" y="337"/>
      <point x="741" y="296" type="curve"/>
      <point x="778" y="296"/>
      <point x="811" y="297"/>
      <point x="832" y="302" type="curve" smooth="yes"/>
      <point x="858" y="307"/>
      <point x="878" y="317"/>
      <point x="899" y="344" type="curve" smooth="yes"/>
      <point x="930" y="379"/>
      <point x="949" y="478"/>
      <point x="967" y="699" type="curve" smooth="yes"/>
      <point x="969" y="716"/>
      <point x="971" y="752"/>
    </contour>
    <contour>
      <point x="604" y="63" type="curve" smooth="yes"/>
      <point x="604" y="185" type="line"/>
      <point x="469" y="185" type="line"/>
      <point x="469" y="61" type="line" smooth="yes"/>
      <point x="469" y="-48"/>
      <point x="493" y="-85"/>
      <point x="608" y="-85" type="curve" smooth="yes"/>
      <point x="639" y="-85"/>
      <point x="664" y="-85"/>
      <point x="695" y="-85" type="curve" smooth="yes"/>
      <point x="775" y="-85"/>
      <point x="810" y="-57"/>
      <point x="826" y="50" type="curve"/>
      <point x="788" y="59"/>
      <point x="732" y="78"/>
      <point x="708" y="97" type="curve"/>
      <point x="704" y="42"/>
      <point x="700" y="33"/>
      <point x="680" y="33" type="curve" smooth="yes"/>
      <point x="662" y="33"/>
      <point x="648" y="33"/>
      <point x="630" y="33" type="curve" smooth="yes"/>
      <point x="607" y="33"/>
      <point x="604" y="36"/>
    </contour>
    <contour>
      <point x="467" y="155" type="curve"/>
      <point x="349" y="189" type="line"/>
      <point x="337" y="121"/>
      <point x="304" y="50"/>
      <point x="264" y="7" type="curve"/>
      <point x="375" y="-65" type="line"/>
      <point x="416" y="-13"/>
      <point x="451" y="72"/>
    </contour>
    <contour>
      <point x="566" y="315" type="curve"/>
      <point x="498" y="227" type="line"/>
      <point x="560" y="203"/>
      <point x="637" y="161"/>
      <point x="674" y="129" type="curve"/>
      <point x="747" y="226" type="line"/>
      <point x="706" y="258"/>
      <point x="627" y="295"/>
    </contour>
    <contour>
      <point x="850" y="202" type="curve"/>
      <point x="734" y="149" type="line"/>
      <point x="790" y="88"/>
      <point x="835" y="7"/>
      <point x="849" y="-59" type="curve"/>
      <point x="975" y="-3" type="line"/>
      <point x="961" y="62"/>
      <point x="909" y="142"/>
    </contour>
  </outline>
</glyph>
<glyph name="uni5555" format="2">
  <advance width="1000"/>
  <unicode hex="5555"/>
  <note>
cid12446
</note>
  <outline>
    <contour>
      <point x="734" y="168" type="line"/>
      <point x="448" y="168" type="line"/>
      <point x="448" y="68" type="line"/>
      <point x="734" y="68" type="line"/>
    </contour>
    <contour>
      <point x="783" y="260" type="line"/>
      <point x="678" y="260" type="line"/>
      <point x="678" y="44" type="line"/>
      <point x="783" y="44" type="line"/>
    </contour>
    <contour>
      <point x="500" y="260" type="line"/>
      <point x="396" y="260" type="line"/>
      <point x="396" y="12" type="line"/>
      <point x="500" y="12" type="line"/>
    </contour>
    <contour>
      <point x="873" y="733" type="line"/>
      <point x="481" y="733" type="line"/>
      <point x="481" y="612" type="line"/>
      <point x="873" y="612" type="line"/>
    </contour>
    <contour>
      <point x="591" y="827" type="curve"/>
      <point x="459" y="856" type="line"/>
      <point x="427" y="748"/>
      <point x="362" y="645"/>
      <point x="280" y="584" type="curve"/>
      <point x="312" y="567"/>
      <point x="369" y="529"/>
      <point x="394" y="507" type="curve"/>
      <point x="475" y="580"/>
      <point x="548" y="698"/>
    </contour>
    <contour>
      <point x="770" y="536" type="line"/>
      <point x="501" y="536" type="line"/>
      <point x="501" y="435" type="line"/>
      <point x="770" y="435" type="line"/>
    </contour>
    <contour>
      <point x="951" y="733" type="line"/>
      <point x="821" y="733" type="line"/>
      <point x="821" y="701" type="line"/>
      <point x="819" y="241"/>
      <point x="817" y="76"/>
      <point x="797" y="43" type="curve" smooth="yes"/>
      <point x="788" y="28"/>
      <point x="779" y="23"/>
      <point x="759" y="23" type="curve" smooth="yes"/>
      <point x="738" y="23"/>
      <point x="700" y="23"/>
      <point x="660" y="27" type="curve"/>
      <point x="680" y="-7"/>
      <point x="695" y="-60"/>
      <point x="696" y="-94" type="curve"/>
      <point x="743" y="-95"/>
      <point x="794" y="-95"/>
      <point x="829" y="-89" type="curve" smooth="yes"/>
      <point x="864" y="-83"/>
      <point x="892" y="-68"/>
      <point x="916" y="-28" type="curve" smooth="yes"/>
      <point x="946" y="21"/>
      <point x="948" y="183"/>
      <point x="951" y="670" type="curve"/>
    </contour>
    <contour>
      <point x="793" y="392" type="line"/>
      <point x="380" y="392" type="line"/>
      <point x="380" y="289" type="line"/>
      <point x="793" y="289" type="line"/>
    </contour>
    <contour>
      <point x="645" y="480" type="line"/>
      <point x="534" y="480" type="line"/>
      <point x="534" y="111" type="line"/>
      <point x="645" y="111" type="line"/>
    </contour>
    <contour>
      <point x="589" y="581" type="curve"/>
      <point x="484" y="606" type="line"/>
      <point x="463" y="546"/>
      <point x="421" y="484"/>
      <point x="375" y="445" type="curve"/>
      <point x="402" y="431"/>
      <point x="440" y="401"/>
      <point x="459" y="378" type="curve"/>
      <point x="510" y="426"/>
      <point x="560" y="504"/>
    </contour>
    <contour>
      <point x="345" y="758" type="line"/>
      <point x="130" y="758" type="line"/>
      <point x="130" y="624" type="line"/>
      <point x="223" y="624" type="line"/>
      <point x="223" y="297" type="line"/>
      <point x="130" y="297" type="line"/>
      <point x="130" y="163" type="line"/>
      <point x="345" y="163" type="line"/>
    </contour>
    <contour>
      <point x="178" y="758" type="line"/>
      <point x="59" y="758" type="line"/>
      <point x="59" y="87" type="line"/>
      <point x="178" y="87" type="line"/>
    </contour>
  </outline>
</glyph>
<glyph name="uni5565" format="2">
  <advance width="1000"/>
  <unicode hex="5565"/>
  <note>
cid12473
</note>
  <outline>
    <contour>
      <point x="647" y="722" type="curve"/>
      <point x="706" y="629"/>
      <point x="817" y="519"/>
      <point x="915" y="460" type="curve"/>
      <point x="934" y="500"/>
      <point x="962" y="548"/>
      <point x="988" y="581" type="curve"/>
      <point x="881" y="631"/>
      <point x="776" y="738"/>
      <point x="704" y="849" type="curve"/>
      <point x="581" y="849" type="line"/>
      <point x="530" y="754"/>
      <point x="422" y="632"/>
      <point x="314" y="573" type="curve"/>
      <point x="338" y="544"/>
      <point x="367" y="494"/>
      <point x="382" y="459" type="curve"/>
      <point x="490" y="523"/>
      <point x="592" y="633"/>
    </contour>
    <contour>
      <point x="821" y="573" type="line"/>
      <point x="492" y="573" type="line"/>
      <point x="492" y="455" type="line"/>
      <point x="821" y="455" type="line"/>
    </contour>
    <contour>
      <point x="952" y="412" type="line"/>
      <point x="362" y="412" type="line"/>
      <point x="362" y="289" type="line"/>
      <point x="952" y="289" type="line"/>
    </contour>
    <contour>
      <point x="901" y="241" type="line"/>
      <point x="419" y="241" type="line"/>
      <point x="419" y="-93" type="line"/>
      <point x="547" y="-93" type="line"/>
      <point x="547" y="123" type="line"/>
      <point x="767" y="123" type="line"/>
      <point x="767" y="-90" type="line"/>
      <point x="901" y="-90" type="line"/>
    </contour>
    <contour>
      <point x="848" y="50" type="line"/>
      <point x="487" y="50" type="line"/>
      <point x="487" y="-67" type="line"/>
      <point x="848" y="-67" type="line"/>
    </contour>
    <contour>
      <point x="723" y="536" type="line"/>
      <point x="592" y="536" type="line"/>
      <point x="592" y="194" type="line"/>
      <point x="723" y="194" type="line"/>
    </contour>
    <contour>
      <point x="333" y="757" type="line"/>
      <point x="135" y="757" type="line"/>
      <point x="135" y="628" type="line"/>
      <point x="214" y="628" type="line"/>
      <point x="214" y="301" type="line"/>
      <point x="135" y="301" type="line"/>
      <point x="135" y="172" type="line"/>
      <point x="333" y="172" type="line"/>
    </contour>
    <contour>
      <point x="174" y="757" type="line"/>
      <point x="56" y="757" type="line"/>
      <point x="56" y="95" type="line"/>
      <point x="174" y="95" type="line"/>
    </contour>
  </outline>
</glyph>
<glyph name="uni55E8" format="2">
  <advance width="1000"/>
  <unicode hex="55E8"/>
  <note>
cid12702
</note>
  <outline>
    <contour>
      <point x="158" y="763" type="line"/>
      <point x="53" y="763" type="line"/>
      <point x="53" y="92" type="line"/>
      <point x="158" y="92" type="line"/>
    </contour>
    <contour>
      <point x="299" y="763" type="line"/>
      <point x="127" y="763" type="line"/>
      <point x="127" y="634" type="line"/>
      <point x="190" y="634" type="line"/>
      <point x="190" y="307" type="line"/>
      <point x="127" y="307" type="line"/>
      <point x="127" y="179" type="line"/>
      <point x="299" y="179" type="line"/>
    </contour>
    <contour>
      <point x="669" y="568" type="curve"/>
      <point x="551" y="568" type="line"/>
      <point x="534" y="385"/>
      <point x="503" y="167"/>
      <point x="471" y="5" type="curve"/>
      <point x="593" y="-3" type="line"/>
      <point x="620" y="158"/>
      <point x="649" y="378"/>
    </contour>
    <contour>
      <point x="965" y="158" type="line"/>
      <point x="576" y="158" type="line"/>
      <point x="576" y="41" type="line"/>
      <point x="965" y="41" type="line"/>
    </contour>
    <contour>
      <point x="703" y="276" type="curve"/>
      <point x="637" y="211" type="line"/>
      <point x="674" y="184"/>
      <point x="707" y="154"/>
      <point x="727" y="130" type="curve"/>
      <point x="797" y="203" type="line"/>
      <point x="779" y="222"/>
      <point x="742" y="251"/>
    </contour>
    <contour>
      <point x="975" y="376" type="line"/>
      <point x="468" y="376" type="line"/>
      <point x="468" y="252" type="line"/>
      <point x="975" y="252" type="line"/>
    </contour>
    <contour>
      <point x="723" y="485" type="curve"/>
      <point x="656" y="419" type="line"/>
      <point x="693" y="392"/>
      <point x="726" y="362"/>
      <point x="746" y="338" type="curve"/>
      <point x="816" y="411" type="line"/>
      <point x="796" y="433"/>
      <point x="761" y="461"/>
    </contour>
    <contour>
      <point x="676" y="831" type="curve"/>
      <point x="555" y="855" type="line"/>
      <point x="533" y="746"/>
      <point x="484" y="645"/>
      <point x="427" y="592" type="curve"/>
      <point x="459" y="570"/>
      <point x="501" y="532"/>
      <point x="522" y="506" type="curve"/>
      <point x="584" y="571"/>
      <point x="644" y="697"/>
    </contour>
    <contour>
      <point x="878" y="568" type="line"/>
      <point x="611" y="568" type="line"/>
      <point x="611" y="453" type="line"/>
      <point x="878" y="453" type="line"/>
    </contour>
    <contour>
      <point x="960" y="741" type="line"/>
      <point x="548" y="741" type="line"/>
      <point x="548" y="610" type="line"/>
      <point x="960" y="610" type="line"/>
    </contour>
    <contour>
      <point x="944" y="568" type="curve"/>
      <point x="824" y="568" type="line"/>
      <point x="824" y="543" type="line"/>
      <point x="814" y="191"/>
      <point x="799" y="61"/>
      <point x="777" y="32" type="curve" smooth="yes"/>
      <point x="767" y="19"/>
      <point x="758" y="15"/>
      <point x="744" y="15" type="curve" smooth="yes"/>
      <point x="726" y="15"/>
      <point x="696" y="16"/>
      <point x="661" y="19" type="curve"/>
      <point x="679" y="-13"/>
      <point x="692" y="-63"/>
      <point x="694" y="-96" type="curve"/>
      <point x="738" y="-97"/>
      <point x="777" y="-97"/>
      <point x="804" y="-92" type="curve" smooth="yes"/>
      <point x="836" y="-86"/>
      <point x="859" y="-75"/>
      <point x="882" y="-43" type="curve" smooth="yes"/>
      <point x="915" y="1"/>
      <point x="928" y="139"/>
      <point x="943" y="515" type="curve"/>
      <point x="944" y="530"/>
      <point x="944" y="568"/>
    </contour>
    <contour>
      <point x="379" y="831" type="curve"/>
      <point x="298" y="735" type="line"/>
      <point x="347" y="705"/>
      <point x="399" y="666"/>
      <point x="424" y="639" type="curve"/>
      <point x="509" y="744" type="line"/>
      <point x="482" y="769"/>
      <point x="424" y="808"/>
    </contour>
    <contour>
      <point x="358" y="570" type="curve"/>
      <point x="281" y="472" type="line"/>
      <point x="328" y="446"/>
      <point x="381" y="409"/>
      <point x="409" y="383" type="curve"/>
      <point x="490" y="492" type="line"/>
      <point x="461" y="515"/>
      <point x="407" y="547"/>
    </contour>
    <contour>
      <point x="259" y="-25" type="curve"/>
      <point x="384" y="-88" type="line"/>
      <point x="417" y="11"/>
      <point x="450" y="124"/>
      <point x="477" y="231" type="curve"/>
      <point x="365" y="296" type="line"/>
      <point x="334" y="179"/>
      <point x="291" y="54"/>
    </contour>
  </outline>
</glyph>
<glyph name="uni5600" format="2">
  <advance width="1000"/>
  <unicode hex="5600"/>
  <note>
cid12745
</note>
  <outline>
    <contour>
      <point x="720" y="846" type="line"/>
      <point x="576" y="846" type="line"/>
      <point x="576" y="715" type="line"/>
      <point x="720" y="715" type="line"/>
    </contour>
    <contour>
      <point x="325" y="739" type="line"/>
      <point x="101" y="739" type="line"/>
      <point x="101" y="610" type="line"/>
      <point x="210" y="610" type="line"/>
      <point x="210" y="290" type="line"/>
      <point x="101" y="290" type="line"/>
      <point x="101" y="161" type="line"/>
      <point x="325" y="161" type="line"/>
    </contour>
    <contour>
      <point x="166" y="739" type="line"/>
      <point x="57" y="739" type="line"/>
      <point x="57" y="77" type="line"/>
      <point x="166" y="77" type="line"/>
    </contour>
    <contour>
      <point x="891" y="573" type="line"/>
      <point x="360" y="573" type="line"/>
      <point x="360" y="-96" type="line"/>
      <point x="484" y="-96" type="line"/>
      <point x="484" y="457" type="line"/>
      <point x="891" y="457" type="line"/>
    </contour>
    <contour>
      <point x="943" y="573" type="line"/>
      <point x="816" y="573" type="line"/>
      <point x="816" y="36" type="line" smooth="yes"/>
      <point x="816" y="25"/>
      <point x="812" y="21"/>
      <point x="799" y="20" type="curve" smooth="yes"/>
      <point x="787" y="20"/>
      <point x="747" y="20"/>
      <point x="715" y="22" type="curve"/>
      <point x="730" y="-9"/>
      <point x="746" y="-60"/>
      <point x="750" y="-93" type="curve"/>
      <point x="814" y="-93"/>
      <point x="862" y="-91"/>
      <point x="897" y="-73" type="curve" smooth="yes"/>
      <point x="933" y="-53"/>
      <point x="943" y="-22"/>
      <point x="943" y="35" type="curve" smooth="yes"/>
    </contour>
    <contour>
      <point x="801" y="409" type="line"/>
      <point x="499" y="409" type="line"/>
      <point x="499" y="320" type="line"/>
      <point x="801" y="320" type="line"/>
    </contour>
    <contour>
      <point x="781" y="274" type="line"/>
      <point x="587" y="273" type="line"/>
      <point x="587" y="184" type="line"/>
      <point x="685" y="184" type="line"/>
      <point x="685" y="133" type="line"/>
      <point x="587" y="133" type="line"/>
      <point x="587" y="42" type="line"/>
      <point x="781" y="42" type="line"/>
    </contour>
    <contour>
      <point x="619" y="273" type="line"/>
      <point x="523" y="274" type="line"/>
      <point x="523" y="8" type="line"/>
      <point x="619" y="8" type="line"/>
    </contour>
    <contour>
      <point x="703" y="470" type="line"/>
      <point x="596" y="470" type="line"/>
      <point x="596" y="214" type="line"/>
      <point x="703" y="214" type="line"/>
    </contour>
    <contour>
      <point x="959" y="769" type="line"/>
      <point x="342" y="769" type="line"/>
      <point x="342" y="655" type="line"/>
      <point x="959" y="655" type="line"/>
    </contour>
    <contour>
      <point x="570" y="664" type="curve"/>
      <point x="443" y="652" type="line"/>
      <point x="454" y="624"/>
      <point x="462" y="585"/>
      <point x="465" y="561" type="curve"/>
      <point x="597" y="577" type="line"/>
      <point x="593" y="601"/>
      <point x="582" y="637"/>
    </contour>
    <contour>
      <point x="861" y="649" type="curve"/>
      <point x="726" y="672" type="line"/>
      <point x="721" y="645"/>
      <point x="708" y="606"/>
      <point x="698" y="579" type="curve"/>
      <point x="821" y="560" type="line"/>
      <point x="832" y="583"/>
      <point x="845" y="614"/>
    </contour>
  </outline>
</glyph>
<glyph name="uni561F" format="2">
  <advance width="1000"/>
  <unicode hex="561F"/>
  <outline>
    <contour>
      <point x="599" y="477" type="curve"/>
      <point x="514" y="434" type="line"/>
      <point x="537" y="404"/>
      <point x="561" y="366"/>
      <point x="572" y="340" type="curve"/>
      <point x="662" y="386" type="line"/>
      <point x="650" y="411"/>
      <point x="624" y="448"/>
    </contour>
    <contour>
      <point x="885" y="794" type="line"/>
      <point x="681" y="794" type="line"/>
      <point x="681" y="-96" type="line"/>
      <point x="796" y="-96" type="line"/>
      <point x="796" y="676" type="line"/>
      <point x="885" y="676" type="line"/>
    </contour>
    <contour>
      <point x="870" y="794" type="line"/>
      <point x="852" y="794" type="line"/>
      <point x="852" y="784" type="line"/>
      <point x="840" y="689"/>
      <point x="821" y="569"/>
      <point x="795" y="439" type="curve"/>
      <point x="845" y="344"/>
      <point x="853" y="289"/>
      <point x="853" y="237" type="curve" smooth="yes"/>
      <point x="853" y="202"/>
      <point x="849" y="173"/>
      <point x="837" y="162" type="curve" smooth="yes"/>
      <point x="832" y="158"/>
      <point x="826" y="156"/>
      <point x="817" y="156" type="curve" smooth="yes"/>
      <point x="811" y="156"/>
      <point x="799" y="156"/>
      <point x="792" y="156" type="curve"/>
      <point x="809" y="125"/>
      <point x="817" y="78"/>
      <point x="817" y="46" type="curve"/>
      <point x="835" y="46"/>
      <point x="853" y="46"/>
      <point x="866" y="49" type="curve" smooth="yes"/>
      <point x="887" y="53"/>
      <point x="903" y="60"/>
      <point x="917" y="72" type="curve" smooth="yes"/>
      <point x="951" y="100"/>
      <point x="966" y="157"/>
      <point x="966" y="233" type="curve" smooth="yes"/>
      <point x="966" y="292"/>
      <point x="955" y="358"/>
      <point x="903" y="455" type="curve"/>
      <point x="930" y="566"/>
      <point x="953" y="669"/>
      <point x="973" y="755" type="curve"/>
      <point x="886" y="798" type="line"/>
    </contour>
    <contour>
      <point x="548" y="755" type="line"/>
      <point x="321" y="755" type="line"/>
      <point x="321" y="637" type="line"/>
      <point x="548" y="637" type="line"/>
    </contour>
    <contour>
      <point x="661" y="585" type="line"/>
      <point x="300" y="585" type="line"/>
      <point x="300" y="468" type="line"/>
      <point x="661" y="468" type="line"/>
    </contour>
    <contour>
      <point x="491" y="848" type="line"/>
      <point x="388" y="848" type="line"/>
      <point x="388" y="512" type="line"/>
      <point x="491" y="512" type="line"/>
    </contour>
    <contour>
      <point x="644" y="365" type="line"/>
      <point x="352" y="365" type="line"/>
      <point x="352" y="-95" type="line"/>
      <point x="450" y="-95" type="line"/>
      <point x="450" y="256" type="line"/>
      <point x="542" y="256" type="line"/>
      <point x="542" y="-86" type="line"/>
      <point x="644" y="-86" type="line"/>
    </contour>
    <contour>
      <point x="603" y="212" type="line"/>
      <point x="410" y="212" type="line"/>
      <point x="410" y="106" type="line"/>
      <point x="603" y="106" type="line"/>
    </contour>
    <contour>
      <point x="603" y="54" type="line"/>
      <point x="410" y="54" type="line"/>
      <point x="410" y="-55" type="line"/>
      <point x="603" y="-55" type="line"/>
    </contour>
    <contour>
      <point x="689" y="778" type="curve"/>
      <point x="579" y="802" type="line"/>
      <point x="529" y="584"/>
      <point x="400" y="386"/>
      <point x="245" y="289" type="curve"/>
      <point x="274" y="269"/>
      <point x="316" y="230"/>
      <point x="335" y="206" type="curve"/>
      <point x="492" y="318"/>
      <point x="629" y="539"/>
    </contour>
    <contour>
      <point x="287" y="760" type="line"/>
      <point x="121" y="760" type="line"/>
      <point x="121" y="642" type="line"/>
      <point x="185" y="642" type="line"/>
      <point x="185" y="302" type="line"/>
      <point x="121" y="302" type="line"/>
      <point x="121" y="184" type="line"/>
      <point x="287" y="184" type="line"/>
    </contour>
    <contour>
      <point x="156" y="760" type="line"/>
      <point x="54" y="760" type="line"/>
      <point x="54" y="87" type="line"/>
      <point x="156" y="87" type="line"/>
    </contour>
  </outline>
</glyph>
<glyph name="uni562D" format="2">
  <advance width="1000" height="1000"/>
  <unicode hex="562D"/>
  <note>
cid12818
</note>
  <outline>
    <contour>
      <point x="290" y="73" type="curve"/>
      <point x="330" y="-54" type="line"/>
      <point x="441" y="-26"/>
      <point x="582" y="12"/>
      <point x="696" y="44" type="curve"/>
      <point x="684" y="154" type="line"/>
      <point x="560" y="126"/>
      <point x="408" y="95"/>
    </contour>
    <contour>
      <point x="447" y="263" type="curve"/>
      <point x="340" y="231" type="line"/>
      <point x="357" y="189"/>
      <point x="370" y="132"/>
      <point x="371" y="96" type="curve"/>
      <point x="485" y="131" type="line"/>
      <point x="481" y="168"/>
      <point x="467" y="223"/>
    </contour>
    <contour>
      <point x="682" y="772" type="line"/>
      <point x="326" y="772" type="line"/>
      <point x="326" y="659" type="line"/>
      <point x="682" y="659" type="line"/>
    </contour>
    <contour>
      <point x="668" y="624" type="line"/>
      <point x="339" y="624" type="line"/>
      <point x="339" y="513" type="line"/>
      <point x="668" y="513" type="line"/>
    </contour>
    <contour>
      <point x="567" y="853" type="line"/>
      <point x="438" y="853" type="line"/>
      <point x="438" y="565" type="line"/>
      <point x="567" y="565" type="line"/>
    </contour>
    <contour>
      <point x="663" y="239" type="curve"/>
      <point x="527" y="265" type="line"/>
      <point x="524" y="223"/>
      <point x="515" y="168"/>
      <point x="504" y="124" type="curve"/>
      <point x="604" y="99" type="line"/>
      <point x="622" y="138"/>
      <point x="645" y="192"/>
    </contour>
    <contour>
      <point x="463" y="355" type="line"/>
      <point x="463" y="395" type="line"/>
      <point x="538" y="395" type="line"/>
      <point x="538" y="355" type="line"/>
    </contour>
    <contour>
      <point x="660" y="490" type="line"/>
      <point x="347" y="490" type="line"/>
      <point x="347" y="260" type="line"/>
      <point x="660" y="260" type="line"/>
    </contour>
    <contour>
      <point x="952" y="801" type="curve"/>
      <point x="828" y="843" type="line"/>
      <point x="795" y="765"/>
      <point x="732" y="684"/>
      <point x="664" y="633" type="curve"/>
      <point x="696" y="610"/>
      <point x="732" y="575"/>
      <point x="759" y="541" type="curve"/>
      <point x="836" y="607"/>
      <point x="905" y="699"/>
    </contour>
    <contour>
      <point x="961" y="509" type="curve"/>
      <point x="835" y="553" type="line"/>
      <point x="800" y="478"/>
      <point x="731" y="401"/>
      <point x="656" y="352" type="curve"/>
      <point x="690" y="326"/>
      <point x="727" y="289"/>
      <point x="751" y="257" type="curve"/>
      <point x="833" y="316"/>
      <point x="914" y="413"/>
    </contour>
    <contour>
      <point x="974" y="223" type="curve"/>
      <point x="848" y="260" type="line"/>
      <point x="807" y="148"/>
      <point x="725" y="54"/>
      <point x="626" y="1" type="curve"/>
      <point x="659" y="-25"/>
      <point x="696" y="-68"/>
      <point x="715" y="-101" type="curve"/>
      <point x="834" y="-26"/>
      <point x="920" y="82"/>
    </contour>
    <contour>
      <point x="309" y="772" type="line"/>
      <point x="130" y="772" type="line"/>
      <point x="130" y="643" type="line"/>
      <point x="200" y="643" type="line"/>
      <point x="200" y="307" type="line"/>
      <point x="130" y="307" type="line"/>
      <point x="130" y="178" type="line"/>
      <point x="309" y="178" type="line"/>
    </contour>
    <contour>
      <point x="162" y="772" type="line"/>
      <point x="55" y="772" type="line"/>
      <point x="55" y="83" type="line"/>
      <point x="162" y="83" type="line"/>
    </contour>
  </outline>
</glyph>
<glyph name="uni5689" format="2">
  <advance width="1000" height="1000"/>
  <unicode hex="5689"/>
  <note>
cid12985
</note>
  <outline>
    <contour>
      <point x="975" y="617" type="line"/>
      <point x="677" y="617" type="line"/>
      <point x="677" y="493" type="line"/>
      <point x="975" y="493" type="line"/>
    </contour>
    <contour>
      <point x="923" y="828" type="line"/>
      <point x="796" y="828" type="line"/>
      <point x="796" y="45" type="line" smooth="yes"/>
      <point x="796" y="33"/>
      <point x="792" y="29"/>
      <point x="780" y="29" type="curve" smooth="yes"/>
      <point x="768" y="29"/>
      <point x="735" y="29"/>
      <point x="703" y="30" type="curve"/>
      <point x="720" y="-5"/>
      <point x="737" y="-61"/>
      <point x="741" y="-95" type="curve"/>
      <point x="803" y="-95"/>
      <point x="848" y="-90"/>
      <point x="881" y="-69" type="curve" smooth="yes"/>
      <point x="914" y="-48"/>
      <point x="923" y="-14"/>
      <point x="923" y="45" type="curve" smooth="yes"/>
    </contour>
    <contour>
      <point x="767" y="429" type="curve"/>
      <point x="673" y="400" type="line"/>
      <point x="695" y="314"/>
      <point x="713" y="212"/>
      <point x="716" y="153" type="curve"/>
      <point x="816" y="189" type="line"/>
      <point x="814" y="245"/>
      <point x="793" y="348"/>
    </contour>
    <contour>
      <point x="292" y="757" type="line"/>
      <point x="97" y="757" type="line"/>
      <point x="97" y="639" type="line"/>
      <point x="185" y="639" type="line"/>
      <point x="185" y="299" type="line"/>
      <point x="97" y="299" type="line"/>
      <point x="97" y="181" type="line"/>
      <point x="292" y="181" type="line"/>
    </contour>
    <contour>
      <point x="153" y="757" type="line"/>
      <point x="48" y="757" type="line"/>
      <point x="48" y="100" type="line"/>
      <point x="153" y="100" type="line"/>
    </contour>
    <contour>
      <point x="282" y="54" type="curve"/>
      <point x="305" y="-67" type="line"/>
      <point x="408" y="-52"/>
      <point x="541" y="-32"/>
      <point x="668" y="-11" type="curve"/>
      <point x="664" y="93" type="line"/>
      <point x="523" y="77"/>
      <point x="378" y="62"/>
    </contour>
    <contour>
      <point x="667" y="626" type="line"/>
      <point x="302" y="626" type="line"/>
      <point x="302" y="522" type="line"/>
      <point x="667" y="522" type="line"/>
    </contour>
    <contour>
      <point x="669" y="401" type="line"/>
      <point x="304" y="401" type="line"/>
      <point x="304" y="300" type="line"/>
      <point x="669" y="300" type="line"/>
    </contour>
    <contour>
      <point x="422" y="526" type="curve"/>
      <point x="337" y="505" type="line"/>
      <point x="352" y="468"/>
      <point x="362" y="418"/>
      <point x="363" y="386" type="curve"/>
      <point x="453" y="410" type="line"/>
      <point x="451" y="441"/>
      <point x="439" y="490"/>
    </contour>
    <contour>
      <point x="638" y="505" type="curve"/>
      <point x="535" y="528" type="line"/>
      <point x="529" y="491"/>
      <point x="519" y="443"/>
      <point x="509" y="411" type="curve"/>
      <point x="590" y="388" type="line"/>
      <point x="602" y="418"/>
      <point x="622" y="467"/>
    </contour>
    <contour>
      <point x="651" y="240" type="line"/>
      <point x="317" y="240" type="line"/>
      <point x="317" y="138" type="line"/>
      <point x="651" y="138" type="line"/>
    </contour>
    <contour>
      <point x="352" y="815" type="curve"/>
      <point x="273" y="793" type="line"/>
      <point x="293" y="746"/>
      <point x="309" y="683"/>
      <point x="311" y="643" type="curve"/>
      <point x="396" y="668" type="line"/>
      <point x="392" y="707"/>
      <point x="374" y="769"/>
    </contour>
    <contour>
      <point x="713" y="792" type="curve"/>
      <point x="618" y="818" type="line"/>
      <point x="611" y="775"/>
      <point x="595" y="714"/>
      <point x="581" y="673" type="curve"/>
      <point x="655" y="649" type="line"/>
      <point x="673" y="685"/>
      <point x="692" y="739"/>
    </contour>
    <contour>
      <point x="537" y="342" type="line"/>
      <point x="431" y="342" type="line"/>
      <point x="431" y="24" type="line"/>
      <point x="537" y="52" type="line"/>
    </contour>
    <contour>
      <point x="476" y="840" type="line"/>
      <point x="388" y="840" type="line"/>
      <point x="388" y="592" type="line"/>
      <point x="476" y="592" type="line"/>
    </contour>
    <contour>
      <point x="589" y="840" type="line"/>
      <point x="502" y="840" type="line"/>
      <point x="502" y="592" type="line"/>
      <point x="589" y="592" type="line"/>
    </contour>
  </outline>
</glyph>
<glyph name="uni568E" format="2">
  <advance width="1000"/>
  <unicode hex="568E"/>
  <note>
cid12992
</note>
  <outline>
    <contour>
      <point x="720" y="855" type="line"/>
      <point x="576" y="855" type="line"/>
      <point x="576" y="744" type="line"/>
      <point x="720" y="744" type="line"/>
    </contour>
    <contour>
      <point x="957" y="796" type="line"/>
      <point x="331" y="796" type="line"/>
      <point x="331" y="698" type="line"/>
      <point x="957" y="698" type="line"/>
    </contour>
    <contour>
      <point x="837" y="388" type="line"/>
      <point x="463" y="388" type="line"/>
      <point x="463" y="307" type="line"/>
      <point x="837" y="307" type="line"/>
    </contour>
    <contour>
      <point x="537" y="575" type="line"/>
      <point x="537" y="603" type="line"/>
      <point x="762" y="603" type="line"/>
      <point x="762" y="575" type="line"/>
    </contour>
    <contour>
      <point x="896" y="676" type="line"/>
      <point x="409" y="676" type="line"/>
      <point x="409" y="502" type="line"/>
      <point x="896" y="502" type="line"/>
    </contour>
    <contour>
      <point x="972" y="484" type="line"/>
      <point x="327" y="484" type="line"/>
      <point x="327" y="320" type="line"/>
      <point x="443" y="320" type="line"/>
      <point x="443" y="407" type="line"/>
      <point x="851" y="407" type="line"/>
      <point x="851" y="320" type="line"/>
      <point x="972" y="320" type="line"/>
    </contour>
    <contour>
      <point x="669" y="202" type="curve"/>
      <point x="603" y="246" type="line"/>
      <point x="534" y="200"/>
      <point x="395" y="153"/>
      <point x="285" y="135" type="curve"/>
      <point x="304" y="116"/>
      <point x="328" y="79"/>
      <point x="338" y="57" type="curve"/>
      <point x="450" y="87"/>
      <point x="591" y="146"/>
    </contour>
    <contour>
      <point x="722" y="127" type="curve"/>
      <point x="648" y="179" type="line"/>
      <point x="574" y="110"/>
      <point x="413" y="39"/>
      <point x="277" y="7" type="curve"/>
      <point x="299" y="-15"/>
      <point x="326" y="-56"/>
      <point x="338" y="-81" type="curve"/>
      <point x="473" y="-33"/>
      <point x="640" y="46"/>
    </contour>
    <contour>
      <point x="712" y="321" type="curve"/>
      <point x="633" y="349" type="line"/>
      <point x="569" y="309"/>
      <point x="440" y="276"/>
      <point x="328" y="259" type="curve"/>
      <point x="345" y="241"/>
      <point x="371" y="201"/>
      <point x="380" y="183" type="curve"/>
      <point x="502" y="211"/>
      <point x="636" y="260"/>
    </contour>
    <contour>
      <point x="602" y="287" type="curve"/>
      <point x="520" y="228" type="line"/>
      <point x="631" y="158"/>
      <point x="639" y="56"/>
      <point x="618" y="29" type="curve" smooth="yes"/>
      <point x="609" y="18"/>
      <point x="597" y="15"/>
      <point x="581" y="15" type="curve" smooth="yes"/>
      <point x="566" y="15"/>
      <point x="544" y="15"/>
      <point x="519" y="18" type="curve"/>
      <point x="537" y="-14"/>
      <point x="546" y="-63"/>
      <point x="548" y="-95" type="curve"/>
      <point x="568" y="-96"/>
      <point x="588" y="-96"/>
      <point x="606" y="-96" type="curve" smooth="yes"/>
      <point x="647" y="-96"/>
      <point x="683" y="-83"/>
      <point x="713" y="-47" type="curve" smooth="yes"/>
      <point x="770" y="21"/>
      <point x="761" y="194"/>
    </contour>
    <contour>
      <point x="775" y="359" type="curve"/>
      <point x="680" y="328" type="line"/>
      <point x="720" y="143"/>
      <point x="804" y="-12"/>
      <point x="909" y="-73" type="curve"/>
      <point x="929" y="-40"/>
      <point x="965" y="6"/>
      <point x="990" y="29" type="curve"/>
      <point x="895" y="72"/>
      <point x="811" y="197"/>
    </contour>
    <contour>
      <point x="974" y="208" type="curve"/>
      <point x="882" y="294" type="line"/>
      <point x="846" y="262"/>
      <point x="783" y="217"/>
      <point x="739" y="194" type="curve"/>
      <point x="810" y="121" type="line"/>
      <point x="857" y="140"/>
      <point x="918" y="173"/>
    </contour>
    <contour>
      <point x="304" y="732" type="line"/>
      <point x="126" y="732" type="line"/>
      <point x="126" y="603" type="line"/>
      <point x="197" y="603" type="line"/>
      <point x="197" y="283" type="line"/>
      <point x="126" y="283" type="line"/>
      <point x="126" y="154" type="line"/>
      <point x="304" y="154" type="line"/>
    </contour>
    <contour>
      <point x="165" y="732" type="line"/>
      <point x="57" y="732" type="line"/>
      <point x="57" y="70" type="line"/>
      <point x="165" y="70" type="line"/>
    </contour>
  </outline>
</glyph>
<glyph name="uni5690" format="2">
  <advance width="1000"/>
  <unicode hex="5690"/>
  <note>
cid12994
</note>
  <outline>
    <contour>
      <point x="507" y="442" type="line"/>
      <point x="386" y="442" type="line"/>
      <point x="386" y="361" type="line" smooth="yes"/>
      <point x="386" y="278"/>
      <point x="435" y="259"/>
      <point x="577" y="259" type="curve" smooth="yes"/>
      <point x="652" y="259"/>
      <point x="727" y="259"/>
      <point x="802" y="259" type="curve" smooth="yes"/>
      <point x="902" y="259"/>
      <point x="937" y="276"/>
      <point x="948" y="356" type="curve"/>
      <point x="917" y="360"/>
      <point x="878" y="370"/>
      <point x="853" y="384" type="curve"/>
      <point x="847" y="340"/>
      <point x="837" y="333"/>
      <point x="790" y="333" type="curve" smooth="yes"/>
      <point x="720" y="333"/>
      <point x="651" y="333"/>
      <point x="581" y="333" type="curve" smooth="yes"/>
      <point x="520" y="333"/>
      <point x="507" y="337"/>
      <point x="507" y="366" type="curve" smooth="yes"/>
    </contour>
    <contour>
      <point x="880" y="400" type="curve"/>
      <point x="825" y="460" type="line"/>
      <point x="730" y="432"/>
      <point x="597" y="416"/>
      <point x="444" y="405" type="curve"/>
      <point x="451" y="389"/>
      <point x="460" y="361"/>
      <point x="462" y="343" type="curve"/>
      <point x="620" y="351"/>
      <point x="761" y="365"/>
    </contour>
    <contour>
      <point x="709" y="855" type="line"/>
      <point x="571" y="855" type="line"/>
      <point x="571" y="693" type="line"/>
      <point x="709" y="693" type="line"/>
    </contour>
    <contour>
      <point x="962" y="732" type="line"/>
      <point x="318" y="732" type="line"/>
      <point x="318" y="543" type="line"/>
      <point x="437" y="543" type="line"/>
      <point x="437" y="631" type="line"/>
      <point x="837" y="631" type="line"/>
      <point x="837" y="543" type="line"/>
      <point x="962" y="543" type="line"/>
    </contour>
    <contour>
      <point x="479" y="849" type="curve"/>
      <point x="370" y="813" type="line"/>
      <point x="390" y="779"/>
      <point x="412" y="733"/>
      <point x="420" y="703" type="curve"/>
      <point x="534" y="746" type="line"/>
      <point x="523" y="775"/>
      <point x="501" y="818"/>
    </contour>
    <contour>
      <point x="935" y="810" type="curve"/>
      <point x="795" y="847" type="line"/>
      <point x="787" y="815"/>
      <point x="772" y="769"/>
      <point x="758" y="736" type="curve"/>
      <point x="853" y="706" type="line"/>
      <point x="875" y="731"/>
      <point x="903" y="768"/>
    </contour>
    <contour>
      <point x="303" y="688" type="line"/>
      <point x="128" y="688" type="line"/>
      <point x="128" y="567" type="line"/>
      <point x="198" y="567" type="line"/>
      <point x="198" y="218" type="line"/>
      <point x="128" y="218" type="line"/>
      <point x="128" y="97" type="line"/>
      <point x="303" y="97" type="line"/>
    </contour>
    <contour>
      <point x="163" y="688" type="line"/>
      <point x="56" y="688" type="line"/>
      <point x="56" y="71" type="line"/>
      <point x="163" y="71" type="line"/>
    </contour>
    <contour>
      <point x="879" y="239" type="line"/>
      <point x="417" y="239" type="line"/>
      <point x="417" y="-99" type="line"/>
      <point x="539" y="-99" type="line"/>
      <point x="539" y="152" type="line"/>
      <point x="751" y="152" type="line"/>
      <point x="751" y="-96" type="line"/>
      <point x="879" y="-96" type="line"/>
    </contour>
    <contour>
      <point x="821" y="15" type="line"/>
      <point x="483" y="15" type="line"/>
      <point x="483" y="-66" type="line"/>
      <point x="821" y="-66" type="line"/>
    </contour>
    <contour>
      <point x="821" y="126" type="line"/>
      <point x="483" y="126" type="line"/>
      <point x="483" y="51" type="line"/>
      <point x="821" y="51" type="line"/>
    </contour>
    <contour>
      <point x="563" y="524" type="line"/>
      <point x="563" y="549" type="line"/>
      <point x="708" y="549" type="line"/>
      <point x="708" y="524" type="line"/>
    </contour>
    <contour>
      <point x="820" y="619" type="line"/>
      <point x="457" y="619" type="line"/>
      <point x="457" y="455" type="line"/>
      <point x="820" y="455" type="line"/>
    </contour>
  </outline>
</glyph>
<glyph name="uni56D4" format="2">
  <advance width="1000"/>
  <unicode hex="56D4"/>
  <note>
cid13122
</note>
  <outline>
    <contour>
      <point x="588" y="405" type="line"/>
      <point x="462" y="405" type="line"/>
      <point x="462" y="157" type="line"/>
      <point x="588" y="157" type="line"/>
    </contour>
    <contour>
      <point x="818" y="405" type="line"/>
      <point x="692" y="405" type="line"/>
      <point x="692" y="157" type="line"/>
      <point x="818" y="157" type="line"/>
    </contour>
    <contour>
      <point x="970" y="189" type="line"/>
      <point x="304" y="189" type="line"/>
      <point x="304" y="120" type="line"/>
      <point x="970" y="120" type="line"/>
    </contour>
    <contour>
      <point x="669" y="142" type="curve"/>
      <point x="578" y="176" type="line"/>
      <point x="515" y="127"/>
      <point x="386" y="97"/>
      <point x="256" y="85" type="curve"/>
      <point x="277" y="67"/>
      <point x="304" y="32"/>
      <point x="316" y="9" type="curve"/>
      <point x="457" y="27"/>
      <point x="592" y="73"/>
    </contour>
    <contour>
      <point x="708" y="173" type="curve"/>
      <point x="610" y="160" type="line"/>
      <point x="657" y="17"/>
      <point x="743" y="-65"/>
      <point x="914" y="-99" type="curve"/>
      <point x="927" y="-69"/>
      <point x="956" y="-27"/>
      <point x="980" y="-5" type="curve"/>
      <point x="830" y="14"/>
      <point x="745" y="73"/>
    </contour>
    <contour>
      <point x="954" y="75" type="curve"/>
      <point x="868" y="129" type="line"/>
      <point x="833" y="107"/>
      <point x="774" y="75"/>
      <point x="731" y="57" type="curve"/>
      <point x="805" y="7" type="line"/>
      <point x="849" y="23"/>
      <point x="906" y="46"/>
    </contour>
    <contour>
      <point x="537" y="70" type="line"/>
      <point x="419" y="92" type="line"/>
      <point x="419" y="-40" type="line"/>
      <point x="537" y="-40" type="line"/>
    </contour>
    <contour>
      <point x="353" y="2" type="curve"/>
      <point x="375" y="-90" type="line"/>
      <point x="465" y="-78"/>
      <point x="582" y="-63"/>
      <point x="694" y="-48" type="curve"/>
      <point x="689" y="40" type="line"/>
      <point x="565" y="25"/>
      <point x="439" y="10"/>
    </contour>
    <contour>
      <point x="696" y="855" type="line"/>
      <point x="562" y="855" type="line"/>
      <point x="562" y="522" type="line"/>
      <point x="696" y="522" type="line"/>
    </contour>
    <contour>
      <point x="952" y="814" type="line"/>
      <point x="320" y="814" type="line"/>
      <point x="320" y="739" type="line"/>
      <point x="952" y="739" type="line"/>
    </contour>
    <contour>
      <point x="940" y="271" type="line"/>
      <point x="344" y="271" type="line"/>
      <point x="344" y="210" type="line"/>
      <point x="940" y="210" type="line"/>
    </contour>
    <contour>
      <point x="955" y="355" type="line"/>
      <point x="332" y="355" type="line"/>
      <point x="332" y="291" type="line"/>
      <point x="955" y="291" type="line"/>
    </contour>
    <contour>
      <point x="487" y="646" type="line"/>
      <point x="487" y="668" type="line"/>
      <point x="789" y="668" type="line"/>
      <point x="789" y="646" type="line"/>
    </contour>
    <contour>
      <point x="931" y="718" type="line"/>
      <point x="354" y="718" type="line"/>
      <point x="354" y="596" type="line"/>
      <point x="931" y="596" type="line"/>
    </contour>
    <contour>
      <point x="476" y="427" type="line"/>
      <point x="476" y="449" type="line"/>
      <point x="529" y="449" type="line"/>
      <point x="529" y="427" type="line"/>
    </contour>
    <contour>
      <point x="620" y="496" type="line"/>
      <point x="388" y="496" type="line"/>
      <point x="388" y="380" type="line"/>
      <point x="620" y="380" type="line"/>
    </contour>
    <contour>
      <point x="737" y="427" type="line"/>
      <point x="737" y="449" type="line"/>
      <point x="790" y="449" type="line"/>
      <point x="790" y="427" type="line"/>
    </contour>
    <contour>
      <point x="881" y="496" type="line"/>
      <point x="650" y="496" type="line"/>
      <point x="650" y="380" type="line"/>
      <point x="881" y="380" type="line"/>
    </contour>
    <contour>
      <point x="960" y="575" type="line"/>
      <point x="308" y="575" type="line"/>
      <point x="308" y="445" type="line"/>
      <point x="406" y="445" type="line"/>
      <point x="406" y="513" type="line"/>
      <point x="859" y="513" type="line"/>
      <point x="859" y="445" type="line"/>
      <point x="960" y="445" type="line"/>
    </contour>
    <contour>
      <point x="285" y="704" type="line"/>
      <point x="121" y="704" type="line"/>
      <point x="121" y="591" type="line"/>
      <point x="188" y="591" type="line"/>
      <point x="188" y="246" type="line"/>
      <point x="121" y="246" type="line"/>
      <point x="121" y="134" type="line"/>
      <point x="285" y="134" type="line"/>
    </contour>
    <contour>
      <point x="158" y="704" type="line"/>
      <point x="58" y="704" type="line"/>
      <point x="58" y="57" type="line"/>
      <point x="158" y="57" type="line"/>
    </contour>
  </outline>
</glyph>
<glyph name="uni5B62" format="2">
  <advance width="1000"/>
  <unicode hex="5B62"/>
  <note>
cid15384
</note>
  <outline>
    <contour>
      <point x="20" y="419" type="curve"/>
      <point x="38" y="277" type="line"/>
      <point x="140" y="294"/>
      <point x="267" y="314"/>
      <point x="386" y="336" type="curve"/>
      <point x="379" y="464" type="line"/>
      <point x="249" y="446"/>
      <point x="111" y="428"/>
    </contour>
    <contour>
      <point x="326" y="802" type="line"/>
      <point x="55" y="802" type="line"/>
      <point x="55" y="668" type="line"/>
      <point x="326" y="668" type="line"/>
    </contour>
    <contour>
      <point x="279" y="580" type="line"/>
      <point x="142" y="580" type="line"/>
      <point x="142" y="61" type="line" smooth="yes"/>
      <point x="142" y="48"/>
      <point x="138" y="45"/>
      <point x="127" y="45" type="curve" smooth="yes"/>
      <point x="115" y="45"/>
      <point x="79" y="45"/>
      <point x="47" y="46" type="curve"/>
      <point x="65" y="7"/>
      <point x="84" y="-56"/>
      <point x="88" y="-95" type="curve"/>
      <point x="149" y="-95"/>
      <point x="196" y="-91"/>
      <point x="233" y="-68" type="curve" smooth="yes"/>
      <point x="271" y="-44"/>
      <point x="279" y="-4"/>
      <point x="279" y="59" type="curve" smooth="yes"/>
    </contour>
    <contour>
      <point x="302" y="802" type="line"/>
      <point x="268" y="802" type="line"/>
      <point x="268" y="772" type="line"/>
      <point x="252" y="720"/>
      <point x="215" y="631"/>
      <point x="178" y="579" type="curve"/>
      <point x="204" y="558"/>
      <point x="250" y="515"/>
      <point x="271" y="486" type="curve"/>
      <point x="326" y="551"/>
      <point x="385" y="658"/>
      <point x="426" y="745" type="curve"/>
      <point x="331" y="810" type="line"/>
    </contour>
    <contour>
      <point x="859" y="740" type="line"/>
      <point x="542" y="740" type="line"/>
      <point x="542" y="610" type="line"/>
      <point x="859" y="610" type="line"/>
    </contour>
    <contour>
      <point x="950" y="740" type="curve"/>
      <point x="818" y="740" type="line"/>
      <point x="818" y="711" type="line"/>
      <point x="814" y="405"/>
      <point x="811" y="294"/>
      <point x="798" y="272" type="curve" smooth="yes"/>
      <point x="790" y="259"/>
      <point x="783" y="255"/>
      <point x="770" y="255" type="curve" smooth="yes"/>
      <point x="758" y="255"/>
      <point x="740" y="256"/>
      <point x="719" y="259" type="curve"/>
      <point x="738" y="223"/>
      <point x="752" y="168"/>
      <point x="754" y="129" type="curve"/>
      <point x="789" y="128"/>
      <point x="827" y="129"/>
      <point x="849" y="135" type="curve" smooth="yes"/>
      <point x="880" y="143"/>
      <point x="901" y="157"/>
      <point x="917" y="185" type="curve" smooth="yes"/>
      <point x="941" y="227"/>
      <point x="947" y="350"/>
    </contour>
    <contour>
      <point x="650" y="827" type="curve"/>
      <point x="511" y="856" type="line"/>
      <point x="481" y="720"/>
      <point x="414" y="590"/>
      <point x="333" y="514" type="curve"/>
      <point x="366" y="493"/>
      <point x="422" y="444"/>
      <point x="444" y="420" type="curve"/>
      <point x="532" y="512"/>
      <point x="609" y="667"/>
    </contour>
    <contour>
      <point x="585" y="554" type="line"/>
      <point x="449" y="554" type="line"/>
      <point x="449" y="94" type="line" smooth="yes"/>
      <point x="449" y="-49"/>
      <point x="487" y="-89"/>
      <point x="630" y="-89" type="curve" smooth="yes"/>
      <point x="801" y="-89" type="line" smooth="yes"/>
      <point x="918" y="-89"/>
      <point x="957" y="-44"/>
      <point x="974" y="107" type="curve"/>
      <point x="935" y="115"/>
      <point x="879" y="138"/>
      <point x="849" y="160" type="curve"/>
      <point x="842" y="58"/>
      <point x="834" y="38"/>
      <point x="789" y="38" type="curve" smooth="yes"/>
      <point x="650" y="38" type="line" smooth="yes"/>
      <point x="593" y="38"/>
      <point x="585" y="44"/>
      <point x="585" y="94" type="curve" smooth="yes"/>
    </contour>
    <contour>
      <point x="767" y="554" type="line"/>
      <point x="486" y="554" type="line"/>
      <point x="486" y="437" type="line"/>
      <point x="636" y="437" type="line"/>
      <point x="636" y="346" type="line"/>
      <point x="486" y="346" type="line"/>
      <point x="486" y="228" type="line"/>
      <point x="767" y="228" type="line"/>
    </contour>
  </outline>
</glyph>
<glyph name="uni5B9E" format="2">
  <advance width="1000"/>
  <unicode hex="5B9E"/>
  <note>
cid15507
</note>
  <outline>
    <contour>
      <point x="565" y="215" type="curve"/>
      <point x="494" y="110" type="line"/>
      <point x="636" y="49"/>
      <point x="771" y="-31"/>
      <point x="853" y="-95" type="curve"/>
      <point x="947" y="15" type="line"/>
      <point x="859" y="78"/>
      <point x="712" y="155"/>
    </contour>
    <contour>
      <point x="626" y="599" type="curve"/>
      <point x="472" y="599" type="line"/>
      <point x="463" y="298"/>
      <point x="465" y="119"/>
      <point x="73" y="30" type="curve"/>
      <point x="104" y="-1"/>
      <point x="140" y="-57"/>
      <point x="154" y="-95" type="curve"/>
      <point x="590" y="16"/>
      <point x="614" y="251"/>
    </contour>
    <contour>
      <point x="940" y="285" type="line"/>
      <point x="66" y="285" type="line"/>
      <point x="66" y="164" type="line"/>
      <point x="940" y="164" type="line"/>
    </contour>
    <contour>
      <point x="311" y="634" type="curve"/>
      <point x="227" y="539" type="line"/>
      <point x="278" y="510"/>
      <point x="342" y="463"/>
      <point x="369" y="430" type="curve"/>
      <point x="460" y="534" type="line"/>
      <point x="428" y="568"/>
      <point x="362" y="609"/>
    </contour>
    <contour>
      <point x="206" y="489" type="curve"/>
      <point x="124" y="391" type="line"/>
      <point x="175" y="364"/>
      <point x="240" y="321"/>
      <point x="269" y="289" type="curve"/>
      <point x="356" y="397" type="line"/>
      <point x="323" y="428"/>
      <point x="257" y="467"/>
    </contour>
    <contour>
      <point x="580" y="856" type="line"/>
      <point x="420" y="856" type="line"/>
      <point x="420" y="706" type="line"/>
      <point x="580" y="706" type="line"/>
    </contour>
    <contour>
      <point x="935" y="772" type="line"/>
      <point x="69" y="772" type="line"/>
      <point x="69" y="528" type="line"/>
      <point x="214" y="528" type="line"/>
      <point x="214" y="637" type="line"/>
      <point x="782" y="637" type="line"/>
      <point x="782" y="528" type="line"/>
      <point x="935" y="528" type="line"/>
    </contour>
  </outline>
</glyph>
<glyph name="uni5BAA" format="2">
  <advance width="1000"/>
  <unicode hex="5BAA"/>
  <note>
cid15528
</note>
  <outline>
    <contour>
      <point x="935" y="338" type="line"/>
      <point x="61" y="338" type="line"/>
      <point x="61" y="212" type="line"/>
      <point x="935" y="212" type="line"/>
    </contour>
    <contour>
      <point x="377" y="587" type="curve"/>
      <point x="231" y="623" type="line"/>
      <point x="202" y="542"/>
      <point x="147" y="460"/>
      <point x="83" y="410" type="curve"/>
      <point x="119" y="393"/>
      <point x="183" y="356"/>
      <point x="214" y="332" type="curve"/>
      <point x="275" y="392"/>
      <point x="340" y="489"/>
    </contour>
    <contour>
      <point x="854" y="548" type="line"/>
      <point x="277" y="548" type="line"/>
      <point x="215" y="424" type="line"/>
      <point x="854" y="424" type="line"/>
    </contour>
    <contour>
      <point x="578" y="641" type="line"/>
      <point x="433" y="641" type="line"/>
      <point x="433" y="281" type="line"/>
      <point x="578" y="281" type="line"/>
    </contour>
    <contour>
      <point x="440" y="220" type="curve"/>
      <point x="290" y="220" type="line"/>
      <point x="276" y="124"/>
      <point x="251" y="63"/>
      <point x="41" y="28" type="curve"/>
      <point x="69" y="0"/>
      <point x="104" y="-56"/>
      <point x="117" y="-92" type="curve"/>
      <point x="372" y="-36"/>
      <point x="421" y="67"/>
    </contour>
    <contour>
      <point x="695" y="226" type="line"/>
      <point x="550" y="226" type="line"/>
      <point x="550" y="88" type="line" smooth="yes"/>
      <point x="550" y="-34"/>
      <point x="579" y="-77"/>
      <point x="708" y="-77" type="curve" smooth="yes"/>
      <point x="744" y="-77"/>
      <point x="780" y="-77"/>
      <point x="816" y="-77" type="curve" smooth="yes"/>
      <point x="917" y="-77"/>
      <point x="954" y="-38"/>
      <point x="969" y="118" type="curve"/>
      <point x="931" y="128"/>
      <point x="867" y="150"/>
      <point x="839" y="173" type="curve"/>
      <point x="835" y="70"/>
      <point x="830" y="57"/>
      <point x="802" y="57" type="curve" smooth="yes"/>
      <point x="778" y="57"/>
      <point x="754" y="57"/>
      <point x="730" y="57" type="curve" smooth="yes"/>
      <point x="700" y="57"/>
      <point x="695" y="60"/>
      <point x="695" y="90" type="curve" smooth="yes"/>
    </contour>
    <contour>
      <point x="583" y="856" type="line"/>
      <point x="429" y="856" type="line"/>
      <point x="429" y="683" type="line"/>
      <point x="583" y="683" type="line"/>
    </contour>
    <contour>
      <point x="949" y="790" type="line"/>
      <point x="57" y="790" type="line"/>
      <point x="57" y="554" type="line"/>
      <point x="205" y="554" type="line"/>
      <point x="205" y="653" type="line"/>
      <point x="793" y="653" type="line"/>
      <point x="793" y="554" type="line"/>
      <point x="949" y="554" type="line"/>
    </contour>
  </outline>
</glyph>
